<?xml version="1.0" encoding="UTF-8"?>
<svg id="Layer_2" data-name="Layer 2" xmlns="http://www.w3.org/2000/svg" viewBox="0 0 375.8 375.8">
  <defs>
    <style>
      .cls-1 {
        fill: #ea8721;
      }

      .cls-1, .cls-2 {
        stroke: #231f20;
        stroke-miterlimit: 10;
        stroke-width: 2px;
      }

      .cls-2 {
        fill: #145e7a;
      }

      .cls-3 {
        fill: #e0e5e8;
        stroke-width: 0px;
      }
    </style>
  </defs>
  <g id="Layer_1-2" data-name="Layer 1">
    <rect class="cls-3" width="375.8" height="375.8" rx="92.13" ry="92.13"/>
    <g>
      <path class="cls-2" d="M302.89,270.3c-2.44.16-4.89.31-7.33.47-1.7.13-4.54.14-7.8-.92-3.55-1.15-5.97-3.02-7.27-4.19-2.04-1.66-4.41-3.89-6.73-6.79-3.1-3.88-5.06-7.65-6.3-10.57l-17.87-38.3s-.01-.02-.01-.03c-6.3-11.49-12.6-22.98-18.9-34.47-3.83-6.74-11.63-18.4-25.57-28.28-12.43-8.8-24.45-12.44-31.77-14.06-4.12-1.5-40.81-6.11-66.85,3.55-25.55,9.48-47.01,30.17-50.97,59.79-.05.32.23.61.56.56,4.09-.59,19.28-2.43,21.86,3.29.15.34.26.7.32,1.09l-.19,2.24c-4.74,39.52-9.48,79.05-14.22,118.57-.03.3.2.56.5.55,28.92-.15,46.7-.1,58.33,0,.63,0,1.4.01,2.34-.04,0,0,.79-.03,1.59-.11,1.03-.11,22.54-4.11,34.43-25.33,3.17-5.64,4.54-10.53,6.69-18.15,1.3-4.62,2.2-8.93,2.82-12.38.61-3.45.93-6.05,1.07-7.25.01-.06,2.65-22.93,6.89-59.59.06-.5.75-.61.95-.14,5.56,12.65,10.15,23.05,13.67,31.09,2.07,4.75,5.38,12.29,10.31,22.41.29.59.55,1.12.8,1.62,6.18,12.49,11.91,22.43,15.97,29.15,2.55,3.86,5.68,8.1,9.53,12.46,4.82,5.48,9.63,9.86,13.92,13.3,3.32,2.55,8.01,5.62,14.07,8.15,6.33,2.64,12.04,3.82,16.29,4.36.02,0,.04.01.06.01l23.59.43c.26,0,.48-.19.5-.44l5.25-51.52c.03-.3-.22-.56-.53-.54ZM166.78,179.06l-9.69,80.69-1.69,10.99c-4.83,21.57-12.96,32.69-27.28,37.06-.57.14-1.03.21-1.39.21-1.92,0-1.26-1.76-1.11-3.02l18.64-160.03c.07-.57.7-.86,1.17-.55l6.54,4.36c3.39,2.13,6.42,4.81,8.77,8.04.08.1.15.2.22.31,2.69,3.75,4.47,8.07,5.35,12.6l.42,3.09c.29,2.07.3,4.17.05,6.25Z"/>
      <path class="cls-2" d="M305.69,254.39c4.86-40.52,9.72-81.04,14.59-121.56.06-.51-.44-.9-.92-.7-2.88,1.2-6.67,3.18-10.41,6.46-4.25,3.72-6.5,7.41-9.43,12.32-4.06,6.79-6.29,12.31-7.22,14.95-.67,1.9-1.1,3.38-1.33,4.17-6.55,22.76-8.87,50.49-9.35,68.03-.06,2.23.15,7.37,3.29,11.47,3.19,4.17,8.41,5.92,8.43,5.93.05.01.09.02.13.03,2.11.22,4.61.31,7.4.08,1.55-.13,2.98-.34,4.28-.59.29-.05.5-.29.53-.58Z"/>
    </g>
    <path class="cls-1" d="M86.64,103.02h29.99c17.23,0,31.62-13.13,33.19-30.29l2.84-31.03c.04-.45-.31-.83-.76-.83h-1.27l-27.95.12c-17.28.11-31.75,12.92-33.83,29.96l-3.96,32.05,1.74.04Z"/>
  </g>
</svg>